<?xml version="1.0" encoding="UTF-8"?>
<svg id="Layer_1" data-name="Layer 1" xmlns="http://www.w3.org/2000/svg" viewBox="0 0 291.93 527.22">
  <defs>
    <style>
      .cls-1 {
        fill: #fff;
      }
    </style>
  </defs>
  <path class="cls-1" d="M291.93,0v527.22H0V0h291.93ZM173.79,36.1c-2.28-3.65-.23-7.93-1.61-9.67-.66-.84-2.64-1.12-3.75-2.06-2.68-2.27-4.42-6.14-8.43-9-4.67-3.34-15.17-8.4-20.78-7.22-2.94.62-12.62,4.16-15.54,5.52-11.93,5.52-18.08,14.43-17.24,27.83.35,5.55,3.77,6.17,3.95,6.94.36,1.45-.25,3.69-.02,5.3-2.16-1.63-5.19-7.28-6.91-2.2-1.74,5.13-.69,16.67,6.92,16,.63-2.17-2.62-1.7-2.73-3.26-.05-.66,2.54-6.14,1.29-8.35.75-.93,1.28.03,1.64.9,1.69,4.09-.32,11.9,7.46,8.56l2.5-12.74,19.62-2.52c-5.31,8.76-.14,15.87,9.27,17.23,3.53.51,12.72-1.35,13.28,2.75.15,1.07-4.29,3.47-5.36,4.1-5.82,3.42-12.27,6.17-18.24,9.35l-3.8-6.62c-6.55.58-24.22,7.2-18.38-5.75-.87-.59-4.81,1.29-4.37-1.45l-1.44,1.1c2.24,3.13,2.91,10.76,6.55,12.31,4.01,1.7,10.76-1.86,15.24-1.06-7.29,6.62-21.43,9.78-27.98,16.68-4.29,4.52-3.72,5.33-.93,10.4,1.21,2.2,11.52,16.99,12.76,17.93.28.21,1.56.81,1.62.74.49-6.18-3.49-11.71-5.53-17.34l-5-7.36c4.52-3.56,10.22-4.89,15.62-6.53,1.69,4.38-.7,24.68,2.15,26.53l3.56.24c1.87-7.94-.04-17.61,3.36-25.32,2.92-6.63,11.31-9.01,17.01-12.76,14.26-9.39,30.3-23.52,46.34-29.18,7.02-2.48,12.42-3.89,17.21,3.5,2.71,4.17-1.55,5.39-5.14,7.12-11.11,5.34-26.73,9.86-36.19,18.28-.89.79-2.07,1.49-1.83,2.88,8.89-3.33,16.97-8.71,25.65-12.47,10.7-4.63,20.38-9.39,27.27,3.49,1.01,1.89,1.15,4.7,2.61,6.11.77.74.72.94,1.47-.02,3.92-7.78-4.06-14.82-10.23-18.13-.63-.86,1.15-4.62,1.18-6.24.15-7.49-10.64-11.03-16.91-9.58l-31.77,9.98c-.82-.82,4.34-12.23,4.75-14.48s-.03-4.46.34-6.09c.12-.55,2.32-.29,1.34-2.94-.34-.93-1.63-1.02-1.85-1.38ZM132.89,58.1c-3.29.48-9.55-1.79-10.16,2.9.43.37,10.84.54,10.16-2.9ZM203.34,256.35c8.68-7.64,22.6-25.96,23.89-37.48.7-6.28-.74-12.54-.68-18.84.05-5.52,1.54-12.62,1.55-18.12.01-11.48-8.4-29.05-13.74-39.34-1.05-2.04-4.71-5.98-4.54-7.84,5.53-7.15,17.16-7.15,19.34-17.77,1.16-5.64-.17-19.14-2.51-24.45-.64-1.45-1.42-1.68-2.63-2.46-3.06,9.89,2.33,17.73-2.66,27.83-4.29,8.68-10.12,7.46-18.66,9.12-2.55-4.81-5.52-11.15-9.16-15.17-.85-.94-1.82-2.34-3.27-2.17-2.15,1.6,2.7,14.97,3.8,17.62,5.92,14.35,20.6,28.69,25.98,43.73,2.72,7.61,4.99,32.68,3.12,40.18-4.06,16.28-21.23,38.99-34.86,48.65-8.67,6.15-19.32,9.87-27.09,17.2.47.76,2.32.38,3.09.19,11.97-2.92,29.77-12.74,39.02-20.89-.25.17-.72,3.12-.68,3.88.38,7.32,4.21,19.15,5.54,27.21,3.66,22.13,5.28,44.96,3.89,67.34-.13,2.06-.91,4.02-.78,6.12-10.94,1.74-21.07,7.02-31.92,9.84-4.32,1.12-9.27,2.26-13.66,3.05-25.25,4.54-50.49,2.47-75.95,3.89-1-2.75-2.66-4.74-5.37-6.01.17-46.17,7.48-92.01,16.04-137.24,2.57-13.57,5.85-26.99,8.49-40.53l37.03,1.08c.84-5.54-21.62-4.92-25.04-4.7-2.22.14-4.44,1.13-6.63,1.37-.99.11-2.18-.7-2.78-.58-1.11.22-.63,2.3-1.85,2.1,4.69-22.94,14.36-44.91,16.69-68.26-3.14,3.53-4.49,9.41-6,13.97-5.99,18.12-11.05,36.64-16.11,55.05l-6.2.69c2.57-9.95,7.13-20.66,7.9-30.95.28-3.74-1.44-7.86-.87-11.02.96-5.33,8.02-14.84,10.31-20.22l-1.02-1.71-1.82.34c-2.58,5.5-11.45,13.66-12.74,19.21-1.47,6.34,1.39,13.76.24,20.57-1.11,6.57-11,21.11-9.99,26.99.22,1.27,1.59,1.98,1.37,3.52-.15,1.04-6.59,12.68-7.73,15.59-5.61,14.26-16.83,45.66-16.14,60.1.16,3.29,2.24,9.71,2.01,12.19-.45,4.97-8.8,23.27-10.93,29.74-2.87,8.69-5.36,17.49-7.83,26.31,1.55,8.51,7.84,14.88,12.31,21.93l.03.9c-4.97-.67-1.9,12.61-1.32,13.06.45.35,2.12-.14,3.01.24,1,.42,1.57,1.39,2.54,1.85,12.45,5.89,25.11,8.01,38.58,10.44.96,9.98,1.37,20.04,2.28,30.04.49,5.41.72,12.55,1.38,17.49.19,1.43,1.55.94,1.54,1.4-.02,1.15-1.39,2.01-1.84,3.26-.82,2.3-3.62,10.58-3.6,12.43.09,5.73,4.93,6.29,8.31,9.72-2.83,1.03-3.64,5.96-3.61,8.72.02,1.87,1.29,3.85,1.29,5.23,0,1.89-3.26,3.23-4.58,4.55-3.18,3.2-6.23,7.94-9.83,10.5-4.64,3.3-15.26,5.95-18.28,10.79-.44.71-.35,2.33-.66,2.58-1.5,1.25-10.17-.81-10.06,3.73,1.59.14,3.08.65,4.69.76,17.67,1.18,36.81-.11,54.46-.79,1.85-.07,8.21-.36,9.39-.02.75.22.32,1.82,1.16,2.58,3.84,3.46,36.12-1.24,43.22-1.66,10.39-.61,21.97.63,32.61-.94,1.56-.23,4.31-.75,4.06-2.84h-12.71l-.98-1.2c.34-12.16-5.43-23.16-8.03-34.78l5.74-7.58c-3.04-.56-4.85.68-7.25,2.17-.72-4.53,1.17-7.91,3.1-11.78,1.1-2.21,3.01-2.77,2.69-5.94-.47-4.71-9.88-11.64-11.97-16.31.78-5.91-1.42-11.98-1.81-17.9-.74-11.37-.11-23.65-.61-35.1,7.97-3.89,19.1-9.41,25.3-15.72.59-.6.6-1.94,1.13-2.53.7-.79,1.92-.51,2.55-1.23,8.65-9.86,2.31-63.37-.28-77.35-1.21-6.49-4.38-22.36-7.2-27.66-.74-1.4-2.88-2.86-4.19-1.98ZM222.22,92.96c-6.57,1.02-12.88,3.04-19.46,4.14-13.32,2.23-26.14,1.08-38.4,7.35-9.46,4.84-19.91,11.72-29.31,17.2-.95.55-1.83-.12-1.43,1.8,4.1.28,8.32-1.9,12.1-3.5,11.08-4.7,22.09-13.77,34.02-15.37,3.93-.52,8.81-.25,12.97-.83,9.46-1.32,22.73-3.86,29.5-10.8ZM166.31,188.09c-1.1-8.15.63-17.96,2.66-26.02.67-2.64,1.5-5.12,2.52-7.65,2.56-6.33,10.47-17.2,11.79-22.42.36-1.45.04-2.11-.28-3.46-9.02,9.44-17.42,23.67-19.52,36.75-1.56,9.66-.58,25.73-4.13,34.36-.69,1.68-12.01,15.5-13.17,15.87-2.82.9-5.19-.57-5.97,4.2.66,18.3-5.83,41.56,10.5,54.74.94-.75,1.66-1.88,1.62-3.1-.08-2.6-3.68-10.18-4.54-13.55-2.06-8.08-4.6-24.96-4.67-33.15,0-.82.09-1.54.51-2.25l18.85-19.32c-.04-3.11,1.74-1.5,4.02-2.1,2.6-.68,21.26-6.37,21.61-7.45l-.44-1.83c-7.28-.71-14.25,1.01-21.36,1.83,6.07-4.51,12.87-8.37,18.5-13.46.78-.7,5.57-4.96,4.74-5.79l-23.23,13.79ZM148.32,141.45c-.52-.98.36-1.72.41-2.55.17-2.52-5.72-1.3-7.31-.75-2.74.94-4.22,6.24-6.34,8.19v1.07s2.85,1.19,2.85,1.19l-.68,6.08c.97,1.3,12.36-9.69,12.37-12.02.47-1.13-1.18-.98-1.3-1.22ZM204.06,167.02h-2.17c-.83,9.51-.15,19.22-.7,28.72-.83,14.4-4.45,29.03-16.07,38.4-3.39,2.73-7.72,5.7-11.33,8.28-4.4,3.14-17.93,10.6-20.54,13.59-.8.91-.94,1.25-.75,2.51,1.28-.06,2.69.19,3.95-.04,4.52-.81,35.56-24.2,39.6-28.67,8.11-8.98,9.54-14.75,10.22-26.82.68-12.05-.27-24.14-2.21-35.98ZM183,227.3c-.61-2.07-6.77-15.18-7.62-15.24-2.02-.13-.01,4.27.24,4.83,1.47,3.29,4.76,7.94,7.38,10.4ZM189.96,241.14c-2.21.66.82,5.04,1.61,6.28,4.03,6.29,3.97-7.94-1.61-6.28ZM138.7,278.14l-37.03,3.26c7.08,3.82,15.2.72,22.66.16l14.37-3.41ZM180.82,280.32c-2.15-.17-2.26,1.54-2.2,3.23.48,13.11,5.33,28.65,6.56,42.17.78,8.56.26,17.61.42,26.14.02.86-.18,3.72,1.4,3.26.96-.87,1.43-2.19,1.66-3.43,3.09-17.08.59-34.4-2.96-51.17-1.43-6.77-3.2-13.49-4.87-20.19ZM95.85,366.01c-1.14-14.41,1.9-29.73.77-43.98-.1-1.27.14-2.8-1.48-3.23.22,16.6-4.66,34.1-.57,50.31.79,1.54,3.91,2.63,5.62,3.1,11.27,3.06,33.58-1.76,45.05-5.12,2.42-.71,16.96-5.52,17.34-6.62.26-.75.04-1.66.09-2.45-1.9-1.99-25.56,5.32-29.77,6.18-12.51,2.54-24.3,3.43-37.05,1.81Z"/>
  <path d="M203.34,256.35c1.31-.88,3.45.58,4.19,1.98,2.82,5.3,5.99,21.17,7.2,27.66,2.6,13.98,8.93,67.49.28,77.35-.63.72-1.85.44-2.55,1.23-.52.59-.54,1.93-1.13,2.53-6.2,6.31-17.34,11.84-25.3,15.72.51,11.45-.13,23.73.61,35.1.39,5.92,2.59,11.99,1.81,17.9,2.09,4.67,11.5,11.6,11.97,16.31.32,3.17-1.59,3.73-2.69,5.94-1.93,3.87-3.82,7.24-3.1,11.78,2.41-1.49,4.21-2.74,7.25-2.17l-5.74,7.58c2.6,11.62,8.37,22.62,8.03,34.78l.98,1.2h12.71c.25,2.09-2.5,2.61-4.06,2.84-10.65,1.57-22.23.33-32.61.94-7.1.41-39.38,5.12-43.22,1.66-.84-.76-.41-2.36-1.16-2.58-1.18-.34-7.54-.05-9.39.02-17.65.67-36.8,1.97-54.46.79-1.61-.11-3.1-.62-4.69-.76-.11-4.54,8.57-2.48,10.06-3.73.3-.25.21-1.87.66-2.58,3.02-4.84,13.64-7.5,18.28-10.79,3.6-2.56,6.65-7.3,9.83-10.5,1.32-1.32,4.57-2.66,4.58-4.55,0-1.39-1.27-3.36-1.29-5.23-.03-2.76.78-7.68,3.61-8.72-3.37-3.43-8.22-3.99-8.31-9.72-.03-1.85,2.77-10.14,3.6-12.43.45-1.26,1.83-2.11,1.84-3.26,0-.46-1.35.03-1.54-1.4-.66-4.94-.89-12.08-1.38-17.49-.91-9.99-1.31-20.06-2.28-30.04-13.47-2.44-26.13-4.55-38.58-10.44-.97-.46-1.54-1.43-2.54-1.85-.89-.37-2.56.11-3.01-.24-.58-.45-3.65-13.73,1.32-13.06l-.03-.9c-4.47-7.05-10.75-13.43-12.31-21.93,2.48-8.82,4.96-17.62,7.83-26.31,2.14-6.47,10.48-24.78,10.93-29.74.22-2.47-1.85-8.89-2.01-12.19-.7-14.44,10.53-45.84,16.14-60.1,1.14-2.91,7.58-14.55,7.73-15.59.22-1.54-1.15-2.25-1.37-3.52-1.01-5.88,8.88-20.42,9.99-26.99,1.15-6.81-1.71-14.23-.24-20.57,1.29-5.55,10.16-13.71,12.74-19.21l1.82-.34,1.02,1.71c-2.3,5.37-9.35,14.89-10.31,20.22-.57,3.15,1.15,7.28.87,11.02-.77,10.3-5.33,21.01-7.9,30.95l6.2-.69c5.06-18.41,10.13-36.93,16.11-55.05,1.51-4.56,2.86-10.44,6-13.97-2.32,23.35-12,45.32-16.69,68.26,1.22.2.74-1.88,1.85-2.1.61-.12,1.8.69,2.78.58,2.19-.24,4.41-1.23,6.63-1.37,3.42-.22,25.88-.84,25.04,4.7l-37.03-1.08c-2.64,13.55-5.92,26.96-8.49,40.53-8.56,45.22-15.88,91.06-16.04,137.24,2.71,1.27,4.37,3.25,5.37,6.01,25.46-1.42,50.7.66,75.95-3.89,4.39-.79,9.33-1.92,13.66-3.05,10.85-2.81,20.97-8.1,31.92-9.84-.13-2.1.65-4.05.78-6.12,1.4-22.38-.23-45.21-3.89-67.34-1.33-8.06-5.17-19.89-5.54-27.21-.04-.76.43-3.71.68-3.88-9.26,8.15-27.05,17.97-39.02,20.89-.77.19-2.62.58-3.09-.19,7.77-7.33,18.42-11.06,27.09-17.2,13.63-9.66,30.8-32.38,34.86-48.65,1.87-7.5-.4-32.57-3.12-40.18-5.38-15.04-20.06-29.39-25.98-43.73-1.09-2.65-5.95-16.02-3.8-17.62,1.44-.18,2.41,1.22,3.27,2.17,3.64,4.02,6.61,10.36,9.16,15.17,8.55-1.66,14.38-.44,18.66-9.12,4.99-10.1-.4-17.94,2.66-27.83,1.21.78,1.99,1.01,2.63,2.46,2.34,5.3,3.67,18.8,2.51,24.45-2.18,10.62-13.81,10.61-19.34,17.77-.17,1.87,3.49,5.81,4.54,7.84,5.33,10.3,13.75,27.86,13.74,39.34,0,5.5-1.5,12.6-1.55,18.12-.06,6.29,1.38,12.56.68,18.84-1.29,11.52-15.21,29.83-23.89,37.48ZM103.12,196.8c-5.5-.02-7.26,2.18-9.58,6.75-5.16,10.15-21.22,57.15-22.35,67.7-.55,5.07-.04,10.51-.74,15.6l2.56-.04c1.48,2.47-2.9,16.58-3.99,20.04-3.65,11.62-9.17,22.71-12.96,34.29.74,5.23,12.55,23.15,11.38,27.25-.51,1.79-4.18,3.28-.96,7.03,1.62,1.88,11.84,3.16,13.76.74,2.85-3.59.47-5.2.37-8.34-.45-13.87,1.25-27.53,1.47-41.39l5.8-43.21c-.44-.44-10.63,2.47-12.33-.37,0-2.18,11.85.12,12.94-3.02l14.63-83.03ZM144.51,400.86c-1.95-2.44-1.38,5.49-1.46,6.17-.51,4.68-1.88,9.98-2.16,14.54-.83,13.28,3.89,26.08,5.08,39.17-.46,2.54-5.75,5.61-7.79,7.45-.47.43-1.4-.05-.93,1.65,3.6,1.09,5.62,1.69,9.42.75,1.2,5.05-3.84,3.81-4.88,9.98-1.23,7.36-1,15.9-1.64,23.41l26.18-19.93c1.31-2.29.59-6.61.69-9.47.07-2.01,1.68-3.96,0-5.83-1.23-1.36-5.79-1.97-7.53-3.36-3.28-2.61-2.72-13.27-3.45-17.61-1.65-9.73-4.04-20.88-6.65-30.38-1.52-5.54-4.24-10.83-4.88-16.55ZM191.72,469.85c-6.76.16-13.68,2.97-20.33.73l-2.02,13.47,3.46,1.78-4.35,1.45c1.65.44,10.88.4,10.87,1.82-3.5,3.77-12.67-2.49-13.78,2.54,13.9,1.04,1.62,6.57-5.31,3.75l-14.3,11.5c8.79-.76,17.72-.48,26.49-1.46,4.76-.53,16.15-3.93,19.81-2.35,1.02.44,1.1.17.9,1.63-.98,1.03-15.98,3.37-18.52,3.64-6.94.72-16.35,1.47-23.22,1.52-4.02.02-12.5-3.26-12.72,2.84,21.15-.27,42.22-1.81,63.17-4.36-3.95-12.48-10.5-25.16-10.16-38.49ZM124.15,471.34l-6.51-.03-1.37,11.93,10.08,3.31c-4.2,1.97-7.56-.59-11.59-1.12l-4.38,5.48c1.05-.17,7.22,2.84,5.1,4.02-2.71,1.5-6.49-.95-8.92-.25-.91.26-5.27,3.89-6.85,4.82-3.1,1.84-6.3,3.92-9.66,5.23l.71,1.09,45.76-.38c.22-3.59-1.55-6.92-1.47-10.49.07-3.32,4.47-22.09,3.66-22.92l-10.44-.65c-1.2.42-3.1,8.03-4.12-.05ZM136.53,506.17c-3.29-.52-6.08,1.63-9.14,2.11-7.29,1.16-19.56,2.1-26.8,1.5-5.57-.46-16.52-6.44-17.07,1.46,16.95.45,34.01,3.02,50.9.39l2.11-5.47Z"/>
  <path d="M173.79,36.1c.22.36,1.51.45,1.85,1.38.97,2.66-1.22,2.39-1.34,2.94-.37,1.63.06,3.93-.34,6.09s-5.57,13.66-4.75,14.48l31.77-9.98c6.27-1.46,17.06,2.08,16.91,9.58-.03,1.62-1.81,5.37-1.18,6.24,6.18,3.31,14.15,10.35,10.23,18.13-.75.96-.71.76-1.47.02-1.46-1.41-1.6-4.22-2.61-6.11-6.9-12.88-16.57-8.12-27.27-3.49-8.68,3.76-16.76,9.14-25.65,12.47-.24-1.4.94-2.09,1.83-2.88,9.45-8.42,25.08-12.93,36.19-18.28,3.59-1.73,7.85-2.95,5.14-7.12-4.79-7.39-10.2-5.97-17.21-3.5-16.05,5.66-32.08,19.8-46.34,29.18-5.7,3.75-14.09,6.14-17.01,12.76-3.4,7.71-1.49,17.38-3.36,25.32l-3.56-.24c-2.85-1.84-.46-22.15-2.15-26.53-5.4,1.64-11.1,2.97-15.62,6.53l5,7.36c2.04,5.63,6.02,11.16,5.53,17.34-.05.07-1.33-.52-1.62-.74-1.24-.93-11.55-15.73-12.76-17.93-2.78-5.07-3.36-5.89.93-10.4,6.55-6.9,20.69-10.06,27.98-16.68-4.48-.8-11.23,2.76-15.24,1.06-3.64-1.54-4.32-9.18-6.55-12.31l1.44-1.1c-.44,2.74,3.5.86,4.37,1.45-5.84,12.95,11.83,6.33,18.38,5.75l3.8,6.62c5.97-3.19,12.42-5.93,18.24-9.35,1.07-.63,5.5-3.03,5.36-4.1-.56-4.1-9.76-2.24-13.28-2.75-9.41-1.36-14.58-8.47-9.27-17.23l-19.62,2.52-2.5,12.74c-7.78,3.34-5.77-4.47-7.46-8.56-.36-.87-.89-1.82-1.64-.9,1.25,2.22-1.34,7.7-1.29,8.35.12,1.56,3.36,1.09,2.73,3.26-7.61.68-8.65-10.87-6.92-16,1.72-5.08,4.75.57,6.91,2.2-.23-1.61.38-3.84.02-5.3-.19-.77-3.61-1.39-3.95-6.94-.84-13.4,5.31-22.31,17.24-27.83,2.92-1.35,12.6-4.9,15.54-5.52,5.6-1.18,16.11,3.89,20.78,7.22,4.01,2.87,5.74,6.73,8.43,9,1.1.94,3.08,1.22,3.75,2.06,1.38,1.74-.67,6.02,1.61,9.67ZM157.59,22.52l3.61-1.82c-2.97-3.33-6.64-6.07-10.87-7.62,1.46,2.94,3.09,12.58,4.7,14.53,1.4,1.69,8.26-.51,10.54-.74-.63-1.86-1.5-3.11-3.64-2.91l.74-1.43c-.79-.58-4.67,1.96-5.08,0ZM111.84,45.74c5.19-1.15,5.03,1.65,8.36,3.62,4.59-.96,18.74.37,21.81-1.4,1.25-.72,5.39-4.93,4.56-6.74l-7.83-27.1c-17.08.33-30,14.21-26.89,31.62ZM161.95,29.77l1.21,2.1c2-.43,8.41.09,7.49-3.19-.99-3.54-6.89,3.63-8.7,1.08ZM168.48,33.41l-11.14,1.45-.5,1.81,13.8,10.53-.1-3.53c-6.87-1.61-1.78-4.03-1.48-5.64.23-1.25-1.65-3.07-.59-4.62ZM152.33,45.22c-3.73-2.05-12.56,10.45-6.33,16.11,3.12,2.83,12.52,4.1,15.21.41-16.63,1.58-14.04-19.18.52-11.78,1.96,1,1.67,2.29,3.1,3.06-.05-9.22-6.93-5.38-11.85-6.54-.54-.13-.49-1.16-.66-1.25Z"/>
  <path d="M166.31,188.09l23.23-13.79c.83.83-3.96,5.08-4.74,5.79-5.62,5.09-12.43,8.95-18.5,13.46,7.12-.82,14.08-2.54,21.36-1.83l.44,1.83c-.35,1.09-19.01,6.78-21.61,7.45-2.28.59-4.06-1.01-4.02,2.1l-18.85,19.32c-.43.72-.52,1.43-.51,2.25.06,8.18,2.61,25.07,4.67,33.15.86,3.37,4.46,10.96,4.54,13.55.04,1.23-.68,2.36-1.62,3.1-16.33-13.18-9.84-36.45-10.5-54.74.78-4.77,3.15-3.3,5.97-4.2,1.17-.37,12.48-14.19,13.17-15.87,3.55-8.63,2.57-24.7,4.13-34.36,2.11-13.08,10.5-27.31,19.52-36.75.32,1.35.64,2.01.28,3.46-1.32,5.23-9.22,16.1-11.79,22.42-1.02,2.52-1.85,5-2.52,7.65-2.03,8.05-3.76,17.87-2.66,26.02Z"/>
  <path d="M204.06,167.02c1.95,11.84,2.89,23.93,2.21,35.98-.68,12.06-2.1,17.84-10.22,26.82-4.04,4.47-35.08,27.85-39.6,28.67-1.27.23-2.67-.02-3.95.04-.19-1.26-.05-1.6.75-2.51,2.61-3,16.14-10.45,20.54-13.59,3.61-2.57,7.94-5.55,11.33-8.28,11.62-9.36,15.23-23.99,16.07-38.4.55-9.5-.13-19.21.7-28.72h2.17Z"/>
  <path d="M95.85,366.01c12.75,1.62,24.54.73,37.05-1.81,4.21-.85,27.87-8.16,29.77-6.18-.05.79.16,1.7-.09,2.45-.38,1.11-14.92,5.92-17.34,6.62-11.47,3.36-33.78,8.18-45.05,5.12-1.71-.46-4.82-1.56-5.62-3.1-4.09-16.21.79-33.71.57-50.31,1.62.43,1.38,1.96,1.48,3.23,1.13,14.25-1.91,29.57-.77,43.98Z"/>
  <path d="M222.22,92.96c-6.77,6.94-20.04,9.48-29.5,10.8-4.16.58-9.04.3-12.97.83-11.92,1.59-22.94,10.67-34.02,15.37-3.78,1.6-8.01,3.78-12.1,3.5-.4-1.93.48-1.25,1.43-1.8,9.39-5.48,19.84-12.36,29.31-17.2,12.26-6.27,25.08-5.12,38.4-7.35,6.58-1.1,12.88-3.12,19.46-4.14Z"/>
  <path d="M180.82,280.32c1.67,6.71,3.44,13.42,4.87,20.19,3.54,16.77,6.05,34.09,2.96,51.17-.22,1.24-.69,2.57-1.66,3.43-1.58.46-1.38-2.39-1.4-3.26-.16-8.53.36-17.58-.42-26.14-1.23-13.52-6.07-29.05-6.56-42.17-.06-1.68.04-3.39,2.2-3.23Z"/>
  <path d="M148.32,141.45c.12.23,1.77.08,1.3,1.22,0,2.32-11.4,13.31-12.37,12.02l.68-6.08-2.86-1.19v-1.07c2.12-1.95,3.61-7.25,6.35-8.19,1.59-.55,7.48-1.77,7.31.75-.05.82-.93,1.56-.41,2.55ZM145.24,139.44c-3.76-.33-4.76,2.95-6.53,5.44l2.9.36-1.45,4.35c1.42,1.2,5.14-5.52,6.53-6.17l-2.9-.36,1.45-3.62Z"/>
  <path d="M138.7,278.14l-14.37,3.41c-7.46.57-15.58,3.66-22.66-.16l37.03-3.26Z"/>
  <path d="M183,227.3c-2.62-2.46-5.91-7.11-7.38-10.4-.25-.56-2.26-4.96-.24-4.83.85.05,7.01,13.17,7.62,15.24Z"/>
  <path d="M189.96,241.14c5.58-1.66,5.65,12.57,1.61,6.28-.79-1.24-3.83-5.62-1.61-6.28Z"/>
  <path d="M132.89,58.1c.68,3.44-9.73,3.27-10.16,2.9.61-4.69,6.87-2.41,10.16-2.9Z"/>
  <path class="cls-1" d="M103.12,196.8l-14.63,83.03c-1.09,3.13-12.94.84-12.94,3.02,1.7,2.84,11.88-.08,12.33.37l-5.8,43.21c-.21,13.86-1.92,27.51-1.47,41.39.1,3.15,2.48,4.75-.37,8.34-1.92,2.42-12.14,1.14-13.76-.74-3.22-3.75.45-5.24.96-7.03,1.17-4.1-10.64-22.02-11.38-27.25,3.79-11.58,9.32-22.67,12.96-34.29,1.09-3.46,5.47-17.57,3.99-20.04l-2.56.04c.7-5.1.19-10.54.74-15.6,1.13-10.54,17.19-57.54,22.35-67.7,2.32-4.57,4.08-6.76,9.58-6.75Z"/>
  <path class="cls-1" d="M144.51,400.86c.64,5.72,3.36,11.01,4.88,16.55,2.61,9.51,5.01,20.65,6.65,30.38.73,4.34.17,15,3.45,17.61,1.74,1.39,6.31,1.99,7.53,3.36,1.68,1.87.07,3.82,0,5.83-.1,2.86.62,7.18-.69,9.47l-26.18,19.93c.64-7.51.4-16.05,1.64-23.41,1.03-6.17,6.07-4.93,4.88-9.98-3.8.94-5.83.34-9.42-.75-.47-1.7.46-1.22.93-1.65,2.04-1.84,7.32-4.91,7.79-7.45-1.19-13.1-5.9-25.89-5.08-39.17.28-4.56,1.65-9.86,2.16-14.54.07-.68-.49-8.61,1.46-6.17Z"/>
  <path class="cls-1" d="M191.72,469.85c-.34,13.33,6.21,26.01,10.16,38.49-20.95,2.55-42.03,4.09-63.17,4.36.22-6.1,8.7-2.82,12.72-2.84,6.87-.04,16.28-.8,23.22-1.52,2.55-.26,17.54-2.61,18.52-3.64.2-1.45.13-1.19-.9-1.63-3.67-1.58-15.05,1.82-19.81,2.35-8.78.98-17.7.69-26.49,1.46l14.3-11.5c6.93,2.82,19.21-2.71,5.31-3.75,1.11-5.03,10.28,1.23,13.78-2.54,0-1.42-9.22-1.38-10.87-1.82l4.35-1.45-3.46-1.78,2.02-13.47c6.65,2.24,13.57-.57,20.33-.73Z"/>
  <path class="cls-1" d="M124.15,471.34c1.01,8.08,2.92.47,4.12.05l10.44.65c.82.83-3.59,19.6-3.66,22.92-.08,3.57,1.7,6.9,1.47,10.49l-45.76.38-.71-1.09c3.36-1.31,6.56-3.4,9.66-5.23,1.58-.93,5.93-4.56,6.85-4.82,2.43-.7,6.21,1.75,8.92.25,2.13-1.18-4.04-4.19-5.1-4.02l4.38-5.48c4.03.53,7.39,3.09,11.59,1.12l-10.08-3.31,1.37-11.93,6.51.03Z"/>
  <path class="cls-1" d="M136.53,506.17l-2.11,5.47c-16.88,2.63-33.94.05-50.9-.39.55-7.9,11.5-1.92,17.07-1.46,7.24.6,19.51-.34,26.8-1.5,3.05-.49,5.85-2.63,9.14-2.11Z"/>
  <path class="cls-1" d="M111.84,45.74c-3.11-17.41,9.82-31.29,26.89-31.62l7.83,27.1c.84,1.81-3.31,6.02-4.56,6.74-3.08,1.77-17.22.44-21.81,1.4-3.33-1.97-3.17-4.78-8.36-3.62Z"/>
  <path class="cls-1" d="M152.33,45.22c.16.09.12,1.12.66,1.25,4.92,1.16,11.79-2.68,11.85,6.54-1.44-.76-1.14-2.06-3.1-3.06-14.57-7.4-17.15,13.37-.52,11.78-2.69,3.69-12.09,2.42-15.21-.41-6.23-5.66,2.59-18.15,6.33-16.11Z"/>
  <path class="cls-1" d="M157.59,22.52c.42,1.96,4.29-.58,5.08,0l-.74,1.43c2.13-.2,3.01,1.05,3.64,2.91-2.28.23-9.14,2.43-10.54.74-1.61-1.96-3.25-11.6-4.7-14.53,4.23,1.56,7.9,4.3,10.87,7.62l-3.61,1.82Z"/>
  <path class="cls-1" d="M168.48,33.41c-1.06,1.55.83,3.37.59,4.62-.3,1.61-5.39,4.03,1.48,5.64l.1,3.53-13.8-10.53.5-1.81,11.14-1.45Z"/>
  <path class="cls-1" d="M161.95,29.77c1.81,2.55,7.71-4.62,8.7-1.08.92,3.28-5.49,2.76-7.49,3.19l-1.21-2.1Z"/>
  <path class="cls-1" d="M145.24,139.44l-1.45,3.62,2.9.36c-1.39.65-5.11,7.37-6.53,6.17l1.45-4.35-2.9-.36c1.78-2.5,2.77-5.77,6.53-5.44Z"/>
</svg>