<?xml version="1.0" encoding="UTF-8"?>
<svg id="Layer_1" data-name="Layer 1" xmlns="http://www.w3.org/2000/svg" viewBox="0 0 275.14 334.29">
  <defs>
    <style>
      .cls-1 {
        fill: #fff;
      }
    </style>
  </defs>
  <path class="cls-1" d="M275.14,0v334.29H0V0h275.14ZM102.86,81v12.64c0,1.4,1.14,4.98,1.7,6.44,1.96,5.06,3.27,4.57,8.18,6.03-1.18,2.62-4.96,12.53-2.58,14.52.48.4,2.44.92,3.3,1.42.31.18.79-.1.51.69-.43,1.19-3.97,5.07-5.02,6.56-1.14,1.62-2.05,3.38-3.15,5.02-.6.9-1.46.26-1.25,2.18.44,3.98,6.67,5.31,9.69,6.21.48.14.76-.28.62.65-1.53,2.01-4.33,4.4-5.38,6.62-.84,1.77-.64,3.88-1.45,5.76.28.9,9.01,3.3,10.5,3.31.34,0,1.45-1.77,1.04-.28-.66,2.4-2.61,5.12-3.62,7.53-3.43,8.22-6.05,16.93-9.46,25.26-2.2,5.38-6.74,12.77-7.44,18.27-1.58,12.3-1.64,25.43-4.46,37.54-.28,1.18-2.28,7.48-2.88,7.86-.36.23-1.02-.16-1.3,0-1,.57-2,7.25-2.87,8.63-.21,1.69,2.09,1.02,1.5,4.11-.74,3.89-1.78,2.14-3.05,2.5-.27.08-3.34,3.13-4.16,3.57-1.45.78-12.51,1.26-14.75,1.1-6.77-.49-13.53-3.48-20.49-2.47-.95.22-5.37,5.25-6.07,6.36-1,1.6-.74,3.49.72,1.58,1.03-1.35,2.55-4.33,3.72-5.28,2.26-1.82,11.1.44,14.22.43l4.78,5.49c7.09,1.7,14.12,2.4,21.24.46,2.39-.65,3.78-1.06,5.43-3.07l12.22,6.15c.04.91-.6.35-1,1.54-1.27,3.78-1.37,9.23-1.99,13.24-4.59.62-9.1-.63-13.49-.88-.47-.03-1.62-.28-1.51.44l15.44,3.68c1.82-1.15,2.71-13.3,3.02-15.86.11-.9.84-1.94.82-2.63-.04-1.17-1.88-1.04-2.14-2.56-.35-2.02,1.34-4.88,1.22-5.49-.13-.71-1.67-1.2-1.58-2.12.06-.67,1.57-3.92,2.33-4.06,4.06.75,8.18.95,12.31.69.69-.23,2.91-4.57,3.09-5.48.54-2.66-1.26-3.92-1.09-7.09.8-14.83,7.88-31.34,8.33-46.53l10.51-14.77-.21-.63-1.72,1.71-.21-.64,16.07-18.22c.7.43-.15.95-.43,1.29-3.6,4.37-7.42,8.6-11.14,12.86-.72,7.11.96,14.51,2.56,21.43s4.15,17.51,8.44,23.28c2.51,3.37,3.98,4.56,8.33,4.95,8.08.72,18.08-6.32,26.93-6.82.98-.06,4.78.18,5.4.64s.14,1.6.67,2c1.18.89,6.95,1.7,8.32,1.03.42-.21.58-.56.74-.97.65-1.63,2.11-7.97,2.24-9.75.25-3.37-2.14-12.63-1.64-14.07.25-.73,6.67-2.87,7.46-2.85.65.01.7.22.95.73.38.78,2.12,7.98,1.81,8.26-2.62.39-6.13.13-8.14,2.14l6.15-.82c1.06.35,1.09,4.48,3.48,4.29l1.02-.74.12-2.66,1.65-.31c1.15,1.25,1.14,3.4,2.35,4.54,2.11,2,10.71,5.1,11.82,6.61.8,1.08,1.22,4.64,1.91,6.23.97,2.27,2.15,3.15,4.21,4.36.79.47,5.21,2.74,5.75,2.85,1.56.34,4.38-3.18,4.42-4.4.06-1.9-1.8-9.49-2.37-11.82s-1.22-4.67-2.04-6.96c-.75-2.09-2.18-3.82-2.24-5.88l-3.22-1.51c.66-1.07,1.77-2.36,1.95-3.62.36-2.64-5-13.61-7.51-14.4-1.2-.38-3.48-.37-4.63.13s-1.29,1.65-2.04,2.25c-3.1,2.5-4.76,2.37-7.83,3.71-.59.26-.63.99-1.24,1.34-1.63.93-6.12,1.53-7.43,2.45-.8.56-.5,2.37-1.13,2.82-1,.72-7.56,2.37-7.25-.5-2.34.26-4.94.23-7.24.48-3.63.39-6.35,1.86-10.3-.38l-12.91,2.48-1.01-.68c2.87-15.9,7.02-31.9,6.83-48.16,1.41,1.32,2.39,1.87,4.07.44,3.19,3.82-2.33,2.84-2.7,5.44-.27,1.87,1.9,7.99,4.54,6.46.45-.26,3.66-5.28,4.4-6.13.14-.81-.83-.62-1.22-1.34-.3-.55-.94-3.08-1.59-3.14-1.42-.13.8,3.91,1.45,4.12l-4.03,4.86c-.84.36-1.03-1.83-1.06-2.36-.24-4.29,2.24-3.11,2.46-5.2-1.99-4.33-.53-2.52,1.21-4.84.27-.35.6-.63.62-1.13-.58-2.34-.49-5.38-.96-7.59-.25-1.18-1.66-3.45-1.51-4.32.08-.45.78-.99.97-1.57,1.02-3,3.74-9.84,2.3-12.59-.66-1.27-2.33-1.58-2.95-2.84,7.78-1.21,16.04-2.01,23.66-3.99,1.78-.46,5.92-1.66,7.35-2.51.53-.32,4.7-3.7,4.93-4.07,1.09-1.75,6.37-13.84,6.48-15.42.08-1.18-.52-2.78-.61-4.04-.45-.69-6.74-1.81-2.79-2.78-1.02-5.74-.2-8.41-7.29-6.64l.82-1.01-4.55-10.39c1.81-5.76.45-11.65-4.62-15.16-1.24-.86-3.8-1.21-4.11-1.56-1.2-1.32-1.71-6.73-4.23-8.1v-.62c2.35-.39,1.45-2.17,1.06-3.87-.43-1.84-3.84-10.02-5.05-11.01-1.66-1.37-7.79.09-10.16-.99l-.43,1.29-1.13-3.34c-.8-.36-1.64-.45-2.5-.53-1.59-.14-7.2.55-7.66.4-1.07-.34-1.87-4.19-4.9-2l-.55,2.45-2.29.05-1.82-4.25-8.67.31c-.85-2.46-1.8-4.89-2.76-7.31-.31-.78-.2-1.76-.5-2.5-1.57-3.8-5.77-12.89-7.85-16.15-2.85-4.44-6.3-1.93-6,2.54l10.2,25.18c-2.05.79-6.51.81-7.74,2.77-.51.81-.2,1.76-1.11,2.32-3.38,2.08-10.6.15-10.65,6.92-1.05-.69-.36-2.29-.83-3.02-.76-1.16-5.11,1.23-6.67.45.29-1,1.63-1.23,2.16-1.91.5-.64.49-1.51.9-2.12.55-.82,2.07-1.05,1.66-2.82-1.06.33-2.86-.55-2.12-1.69.23-.36,3.66-.9,4.72-1.93,1.49-1.45,1.33-4.39,3.4-5.6.31-1.39-2.64-1.09-3.43-1.07l1.28-2.56-5.14,2.57c2.28-1.99,5.52-10.11,3.31-12.31-8.19-4.53-17.72-12.93-27.53-13.01-4.21-.03-20.09,4.73-22.44,8.03-1.52,3.98-3.57,7.88-4.73,11.99-.23.8.2.63.81.59l.86-1.28v2.14c-2.77-1.83-3.18,3.85-4.27,4.51-1.16.44-2.4.08-3.6.26-2.8.41-11.17,1.55-13.27,2.61-2.23,1.12-2.56,4.26-1.88,6.43,3.02,9.67,15.09,4.69,22.16,3.76l-2.99,4.5c.88,1.37,2.15-.26,3.23-.2.85.05,1.13,1,1.78,1.2,1.08.33,2.74-.55,3.44.17l2.26,3.98c.13.64-3.6,3.51-1.5,3.21,1.09-.15,3.45-1.91,3.15-3.12-.22-.9-2.66-4.83-3.31-6.17-.7-1.44-1.42-4.43-2.24-5.47-.88-1.1-1.86-.21-2.1-1.11,3.46-.16,6.8-1.11,10.08-2.14,1.89-.59,3.02-2.09,5.16-.89,2.83,1.6.7,5.24,1.05,7.73,1.72-.72,1.28-3.83,3.85-2.35.54.31,2.14,3.95,2.15.63,1.18,1.08,2.19-.41,2.36-.42.34,0,.69,1.45,1.36,1.67s2.54-.49,3.78-.4c1.76.13,3.23,1.69,4.92.21,1.22-1.07.83-3.02.87-4.49l.85.43c.18-1.91-.58-3.34-2.68-2.94-1.73.33-2.4,3-4.17,2.29,5.69-8.49,12.94-.22,5.99,6.03l-1.7-.67c-.46,2.88,2.61,1.09,2.94,1.32.13.09.73,1.5,1.56,2.11.97.72,2.23.68,2.79,1.7-1.77.45-3.48,1.87-4.92,3.02-1.11.88-5.84,5.63-6.23,5.79-.67.27-1.42-.31-2.25-.17-1.93.34-6.3,5.18-8.01,6.58l-4.95-1.92c-.61-.6.58-.47.87-.84.43-.54-.06-1.21-.45-1.31-1.17-.31-1.53,1.18-2.5,1.25-.71-.13-5.7-4.72-7-5.46-.39-.22-1.42-.76-1.41.14.01,1.98,8.09,6.71,9.98,7.58,1.44.66,3.02.75,4.26,1.24.39.15.3.84.53.84,1.52,0,7.89-7.64,9.21-6.44.19.81-.46,1.02-.85,1.5-1.5,1.82-4.06,4.56-6.43,4.93-.34,1.42,1.77.6.88,2.3l.83.91-6.39,5.52c.9,1.1,2.71,3.01,4.14,3.19,1.34.17,3.67-1.31,5.47-1.23,1.58.06,2.13,1.4,3.64,1.31-1.44-6.43-9.04,1.07-10.71-4.28l5.77-4.28,7.08,4.28c.35-3.86-4.23-5.25-7.12-6.39-1.71-.67,1.1-1.86,1.78-2.6,6.75-7.17,13.59-16.66,24.22-17.41l.87,3.21,1.67.46c-2.43.66-5.33,1.28-7.51,2.57-5.24,3.08-11.8,15.01-12.95,20.91-.37,1.89.34,3.63-.87,5.38,0,.62,3.48,7.84,4,8.42.95,1.06,1.78.32,2.31.66,1.67,1.07,1.67,6.04,3.88,8.15.93.89,7.75,5.18,9.14,5.86.9.44,1.84.67,2.81.83l.05,1.66c-3.46-.36-5.99-1.52-9.61-1.25-.76.06-1.9.77-2.2.73-.44-.05-.62-1.13-1.06-1.41-1.37-.83-3.41-.42-5.36-2.35-3.89-3.83-2.48-13.67-3.83-18.89-.22-.84-.2-2.28-1.51-2.13ZM83.15,40.72c-2.23-.23-5.99.17-6,3l5.74-1.67.26-1.32ZM82.55,48.03c-1.92,1.44.42,3.47,2.08,3.82,1.51-.31.23-4.57-2.08-3.82ZM67.71,290.58l-21.43-10.72c2.91,2.71,7.12,4.83,10.7,6.65,2.4,1.22,6.35,3.24,8.78,4.08.39.14,1.97.9,1.95-.02ZM82.2,298.37c-.15-.26-3.83-2.15-4.39-2.17-2.45-.1-3.96,2.22-6.25,1.46-7.83-4.12-16.26-7.31-24-11.58-2.16-1.19-4.1-3.13-6.42-3.65,1.45,2.14,3.51,3.53,5.71,4.78,7.85,4.48,17.28,7.46,25.14,12.16,1.3,1.05,4.84-1.57,5.55-1.06,1.76,5.4,9.66,7.53,14.68,8.68,2.44.56,6.73,1.87,8.8.18.99-.81,1.76-4.33-.73-3.74-.88,3.62-1.24,4.08-4.72,3.21-1.88-.47-11.59-3.37-12.61-4.1-1.44-1.04-.19-3.17-.77-4.16ZM87.99,286.42c-2.56,3.59,1.57,7.54,5.88,6.97,10.4-1.37,2.59-12.29-3.6-8.76-.24.14-2.2,1.66-2.28,1.78Z"/>
  <path d="M102.86,81c1.31-.15,1.3,1.29,1.51,2.13,1.35,5.21-.07,15.05,3.83,18.89,1.96,1.93,3.99,1.51,5.36,2.35.45.27.62,1.36,1.06,1.41.3.03,1.44-.68,2.2-.73,3.62-.27,6.15.88,9.61,1.25l-.05-1.66c-.98-.16-1.92-.39-2.81-.83-1.39-.68-8.21-4.97-9.14-5.86-2.21-2.11-2.2-7.08-3.88-8.15-.53-.34-1.36.4-2.31-.66-.52-.58-4-7.8-4-8.42,1.22-1.75.51-3.5.87-5.38,1.15-5.9,7.71-17.83,12.95-20.91,2.18-1.28,5.08-1.9,7.51-2.57l-1.67-.46-.87-3.21c-10.64.75-17.48,10.24-24.22,17.41-.69.73-3.5,1.92-1.78,2.6,2.89,1.13,7.47,2.53,7.12,6.39l-7.08-4.28-5.77,4.28c1.67,5.34,9.27-2.15,10.71,4.28-1.52.09-2.06-1.25-3.64-1.31-1.79-.07-4.12,1.41-5.47,1.23-1.42-.18-3.24-2.1-4.14-3.19l6.39-5.52-.83-.91c.89-1.7-1.22-.88-.88-2.3,2.37-.38,4.93-3.11,6.43-4.93.4-.48,1.04-.69.85-1.5-1.32-1.2-7.69,6.44-9.21,6.44-.24,0-.14-.69-.53-.84-1.23-.48-2.81-.57-4.26-1.24-1.89-.87-9.97-5.6-9.98-7.58,0-.89,1.02-.36,1.41-.14,1.3.74,6.29,5.33,7,5.46.98-.07,1.33-1.56,2.5-1.25.38.1.87.77.45,1.31-.29.37-1.48.24-.87.84l4.95,1.92c1.71-1.4,6.08-6.24,8.01-6.58.83-.14,1.58.44,2.25.17.39-.16,5.13-4.91,6.23-5.79,1.44-1.15,3.14-2.56,4.92-3.02-.55-1.03-1.82-.98-2.79-1.7-.83-.61-1.43-2.02-1.56-2.11-.33-.23-3.39,1.56-2.94-1.32l1.7.67c6.95-6.24-.3-14.52-5.99-6.03,1.77.71,2.44-1.96,4.17-2.29,2.1-.4,2.86,1.02,2.68,2.94l-.85-.43c-.04,1.47.35,3.42-.87,4.49-1.69,1.47-3.17-.09-4.92-.21-1.23-.09-3.1.62-3.78.4s-1.02-1.67-1.36-1.67c-.16,0-1.17,1.5-2.36.42,0,3.31-1.6-.32-2.15-.63-2.57-1.48-2.13,1.64-3.85,2.35-.35-2.49,1.78-6.13-1.05-7.73-2.13-1.21-3.27.29-5.16.89-3.28,1.03-6.62,1.97-10.08,2.14.24.9,1.22,0,2.1,1.11.83,1.04,1.55,4.03,2.24,5.47.65,1.34,3.08,5.27,3.31,6.17.3,1.2-2.06,2.97-3.15,3.12-2.1.29,1.63-2.57,1.5-3.21l-2.26-3.98c-.7-.72-2.36.15-3.44-.17-.65-.2-.93-1.15-1.78-1.2-1.08-.06-2.35,1.57-3.23.2l2.99-4.5c-7.07.92-19.14,5.91-22.16-3.76-.68-2.17-.35-5.31,1.88-6.43,2.1-1.05,10.47-2.2,13.27-2.61,1.2-.18,2.43.18,3.6-.26,1.09-.66,1.5-6.34,4.27-4.51v-2.14s-.86,1.28-.86,1.28c-.6.04-1.03.21-.81-.59,1.17-4.11,3.21-8.01,4.73-11.99,2.35-3.3,18.23-8.06,22.44-8.03,9.81.08,19.34,8.48,27.53,13.01,2.21,2.2-1.03,10.32-3.31,12.31l5.14-2.57-1.28,2.56c.78-.02,3.74-.32,3.43,1.07-2.07,1.21-1.91,4.16-3.4,5.6-1.06,1.03-4.48,1.57-4.72,1.93-.74,1.14,1.07,2.02,2.12,1.69.41,1.77-1.11,2-1.66,2.82-.41.61-.4,1.48-.9,2.12-.53.68-1.87.91-2.16,1.91,1.55.78,5.91-1.61,6.67-.45.48.73-.22,2.33.83,3.02.05-6.77,7.27-4.84,10.65-6.92.91-.56.61-1.51,1.11-2.32,1.22-1.96,5.69-1.98,7.74-2.77l-10.2-25.18c-.3-4.47,3.15-6.98,6-2.54,2.09,3.25,6.28,12.35,7.85,16.15.31.74.2,1.72.5,2.5.96,2.42,1.91,4.85,2.76,7.31l8.67-.31,1.82,4.25,2.29-.05.55-2.45c3.03-2.19,3.84,1.66,4.9,2,.45.15,6.07-.54,7.66-.4.87.08,1.7.16,2.5.53l1.13,3.34.43-1.29c2.37,1.07,8.5-.38,10.16.99,1.21,1,4.62,9.17,5.05,11.01.39,1.7,1.3,3.48-1.07,3.87v.62c2.53,1.37,3.04,6.78,4.24,8.1.32.35,2.87.7,4.11,1.56,5.08,3.52,6.44,9.4,4.62,15.16l4.55,10.39-.82,1.01c7.09-1.77,6.27.9,7.29,6.64-3.94.97,2.34,2.09,2.79,2.78.09,1.25.69,2.85.61,4.04-.11,1.57-5.39,13.66-6.48,15.42-.23.37-4.4,3.76-4.93,4.07-1.43.85-5.57,2.05-7.35,2.51-7.62,1.98-15.88,2.78-23.66,3.99.62,1.26,2.28,1.57,2.95,2.84,1.44,2.76-1.28,9.59-2.3,12.59-.2.58-.9,1.12-.97,1.57-.15.86,1.26,3.13,1.51,4.32.47,2.21.39,5.25.96,7.59-.02.49-.36.77-.62,1.13-1.74,2.32-3.2.51-1.21,4.84-.22,2.09-2.7.91-2.46,5.2.03.52.23,2.72,1.06,2.36l4.03-4.86c-.66-.22-2.87-4.25-1.45-4.12.65.06,1.28,2.58,1.59,3.14.4.72,1.37.53,1.22,1.34-.73.86-3.94,5.87-4.4,6.13-2.65,1.53-4.82-4.6-4.54-6.46.38-2.59,5.89-1.62,2.7-5.44-1.68,1.43-2.66.88-4.07-.44.19,16.26-3.96,32.26-6.83,48.16l1.01.68,12.91-2.48c3.95,2.23,6.67.77,10.3.38,2.3-.25,4.9-.22,7.24-.48-.31,2.87,6.25,1.22,7.25.5.63-.45.33-2.26,1.13-2.82,1.31-.92,5.79-1.52,7.43-2.45.61-.35.66-1.09,1.24-1.34,3.07-1.35,4.73-1.21,7.83-3.71.74-.6.89-1.76,2.04-2.25s3.43-.51,4.63-.13c2.5.79,7.87,11.76,7.51,14.4-.17,1.27-1.29,2.56-1.95,3.62l3.22,1.51c.06,2.06,1.49,3.8,2.24,5.88.82,2.29,1.46,4.59,2.04,6.96s2.43,9.91,2.37,11.82c-.04,1.22-2.86,4.74-4.42,4.4-.54-.12-4.96-2.39-5.75-2.85-2.06-1.21-3.23-2.09-4.21-4.36-.68-1.59-1.1-5.15-1.91-6.23-1.12-1.5-9.71-4.6-11.82-6.61-1.21-1.14-1.2-3.3-2.35-4.54l-1.65.31-.12,2.66-1.02.74c-2.39.19-2.42-3.94-3.48-4.29l-6.15.82c2.02-2.01,5.52-1.75,8.14-2.14.31-.29-1.42-7.49-1.81-8.26-.25-.51-.3-.72-.95-.73-.79-.01-7.21,2.12-7.46,2.85-.5,1.44,1.89,10.7,1.64,14.07-.13,1.78-1.59,8.12-2.24,9.75-.16.41-.33.76-.74.97-1.36.68-7.13-.14-8.32-1.03-.53-.4-.04-1.53-.67-2s-4.42-.69-5.4-.64c-8.85.5-18.85,7.54-26.93,6.82-4.35-.39-5.83-1.58-8.33-4.95-4.29-5.77-6.81-16.22-8.44-23.28s-3.28-14.31-2.56-21.43c3.72-4.27,7.53-8.5,11.14-12.86.28-.34,1.13-.85.43-1.29l-16.07,18.22.21.64,1.72-1.71.21.63-10.51,14.77c-.45,15.19-7.54,31.7-8.33,46.53-.17,3.17,1.63,4.43,1.09,7.09-.19.91-2.4,5.25-3.09,5.48-4.14.26-8.25.05-12.31-.69-.76.14-2.27,3.39-2.33,4.06-.09.93,1.45,1.41,1.58,2.12.11.61-1.57,3.47-1.22,5.49.26,1.52,2.1,1.39,2.14,2.56.02.69-.71,1.73-.82,2.63-.32,2.56-1.2,14.71-3.02,15.86l-15.44-3.68c-.11-.72,1.04-.47,1.51-.44,4.38.25,8.9,1.49,13.49.88.62-4.01.72-9.46,1.99-13.24.4-1.19,1.04-.64,1-1.54l-12.22-6.15c-1.64,2.01-3.04,2.42-5.43,3.07-7.12,1.94-14.15,1.24-21.24-.46l-4.78-5.49c-3.12.01-11.96-2.25-14.22-.43-1.17.94-2.7,3.93-3.72,5.28-1.45,1.91-1.71.02-.72-1.58.7-1.12,5.11-6.15,6.07-6.36,6.95-1.01,13.71,1.98,20.49,2.47,2.23.16,13.3-.31,14.75-1.1.83-.45,3.9-3.5,4.16-3.57,1.27-.36,2.31,1.39,3.05-2.5.59-3.09-1.71-2.42-1.5-4.11.87-1.38,1.87-8.06,2.87-8.63.27-.16.93.23,1.3,0,.6-.37,2.61-6.67,2.88-7.86,2.82-12.11,2.88-25.24,4.46-37.54.71-5.5,5.24-12.89,7.44-18.27,3.41-8.33,6.03-17.04,9.46-25.26,1-2.41,2.96-5.13,3.62-7.53.41-1.49-.7.28-1.04.28-1.49-.01-10.22-2.41-10.5-3.31.81-1.88.62-3.99,1.45-5.76,1.05-2.22,3.85-4.62,5.38-6.62.14-.93-.14-.5-.62-.65-3.02-.9-9.25-2.24-9.69-6.21-.21-1.92.65-1.28,1.25-2.18,1.09-1.63,2-3.4,3.15-5.02,1.05-1.49,4.59-5.37,5.02-6.56.28-.79-.2-.51-.51-.69-.85-.5-2.82-1.02-3.3-1.42-2.37-1.98,1.41-11.89,2.58-14.52-4.91-1.46-6.22-.97-8.18-6.03-.57-1.46-1.7-5.04-1.7-6.44v-12.64ZM137.99,13.71c1.34-2.45,2.21-3.95-1.27-4.71-.58,1.43-.43,2.83.33,4.17.27.47-.03.74.95.54ZM140.57,13.29c-1.19-.89-3.29,4.69-1.07,5.56,1.99-2.09,2.22-2.87,1.07-5.56ZM89.57,31.28l6-15c-2.8,3.27-5.21,9.42-6.23,13.69-.1.43-.56,1.4.23,1.3ZM116.57,16.71h-7.07c-.58,0-2.18-.89-3.21-.42-.37.17.8.85,1.07.85h9.21v-.43ZM145.29,24c.56-.58-2.96-5.71-3.21-6.85-2.88,2.61-2.25,3.97-1.03,7.23l4.24-.38ZM141.85,25.29c-.05.7.45,2.84,1.1,2.99,5.13-2.21,4.61-4.18-1.1-2.99ZM147.84,28.3l-3.77,1.77.79,2.93,3.39-3.06-.41-1.65ZM77.57,30.86l-8.14-.86c.09.71,1.8.77,2.36.85,1.26.17,3,.33,4.29.43.47.04,1.6.31,1.49-.42ZM149.14,30.86c-.68-.52-1.89,1.71-2.14,2.14l2.99.86-.86-3ZM150.86,36l-.71-1.21-4.42-.07.68,2.17,4.46-.89ZM102.43,36.43c-4.05.83-4.54,3.85-2.99,7.29,2.23-1.56,6.03,1.58,7.09-1.26.16-.44.25-.84.19-1.31-2.05.3-4.44,1.1-6.24-.43-.71-1.18,2.24-4.04,1.96-4.28ZM141.51,42.78l18.92-3c1.32-.39.39-2.32-.8-2.52s-6.83.75-8.43,1c-3.85.61-7.66,1.69-11.48,2.45l1.79,2.06ZM149.57,56.14c-.32-2.72-.66-5.83-2.57-7.92-1.42-1.55-6.7-4.04-8.78-4.08-3.23-.05-7.63,1.84-10.92,2.16l-.45,3.4c1.75.69,4.51,2.59,6.56,2.09.61-.15,1.17-1.21,1.85-1.59,3.2-1.77,7.67-.18,10.23,2.09.48.42,3.4,4.6,4.07,3.85ZM171.86,48.42c-.42-.41-2.41-3.54-3-2.99-.03,1.14-.91,2.17.19,3.05l2.81-.05ZM177.43,51c-1.18-1.65-4.36-1.42-6.21-1.27-3.6.29-6.95,1.56-7.5,5.56l6.09-3.12,7.62-1.17ZM177.85,57.43c0-1.97-.35-5.22-3-4.71.68,1.72.49,4.98,3,4.71ZM173.14,53.15l-5.38,1.69,1.52,4.13,5.15-1.56-1.28-4.26ZM189.43,59.15c-2.5-1.09-4.39-3.33-6.84-4.52-.59-.29-3.03-1.38-3.45-1.05.8,4.66,2.69,3.98,5.95,5.83,2.26,1.28,4.21,3.16,6.9,3.59l-2.15-5.14-.43,1.29ZM134.03,55.41c-1.39-1.43-9.28-.01-10.7,1.16-1.33,1.1-5.41,9.44-6.22,11.47-.51,1.26-2.83,8.03-2.7,8.83.04.24,1.09.53,1.54,1.56,1.19,2.7.69,7.68,2.98,9.45.65.5,1.48.5,2.12.89.51.31.59,1.08.76,1.18.14.09,2.72-.29,3.32.03.54-1.96.86-4.03,1.55-5.96.92-2.56,2.59-4.71,3.43-6.86.38-.97.07-1.99.68-3.18.15-.3,3.32-4.42,3.56-4.58.6-.42,4.56-.76,4.53-2.32,0-.19-.89-.68-1.07-1.09-.24-.54.2-1.15.01-1.7-.39-1.18-3.3-8.4-3.77-8.88ZM164.57,57l-5.14,1.72c1.05,3.06-.06,5.67,4.1,4.31s2-3.03,1.04-6.02ZM155.52,59.63c-1.45.08-5.2-1.04-5.31,1.25l.22,2.99,6.43.85-1.34-5.08ZM158.14,59.14c-1.65-.42-.37,3.18-.19,3.85.14.51-.02,1.61.84,1.29,1.19-.45-.68-4.18-.64-5.14ZM200.14,90.43l-11.81-27.4c-.64-1.17-4.32-2.72-5.65-2.94-.68-.12-3.57-.51-4.15-.54-5.33-.27-8.58,1.34-13.04,3.94l9.92,23.82c.34.34,4.86,2.21,5.27,2.14.34-.05.59-.97,1.14-1.32,2.9-1.83,2.79-.4,5.25-.27,1.82.09,4.37-.31,5.99,0,1.11.21,1.31,1.21,2.26,1.6,1.37.56,3.41.25,4.81.97ZM108.86,70.71c1.93-2.49,3.63-5.62,4.71-8.57-1.93,2.49-3.63,5.62-4.71,8.57ZM144.85,72.43l.68-2.56c-2.96-2.66-3.99-4.14-7.09-.65l6.42,3.21ZM207.85,80.57c1.79-5.23-1.77-11.2-6.85-12.85l6.85,12.85ZM144.35,74.22c-.26-.44-4.58-2.72-5.37-2.98-4.8-1.56-4.84.68-6.9,4.33.06.75,2.44,3.22,3.12,3.73.56.42,1.33.33,1.93.66.31.17.36.84.53.94,1.92,1.19,7.64-5.05,6.69-6.69ZM168.77,80.23c-.31-.55-5.05-4.08-5.81-5.12l-15.58-3.32c-3.72,1.48-1.2,2.17-1.33,3.78-.04.48-2.04,3.83-2.48,4.36-2.65,3.16-4.28,1.54-6.43,2.57-.34.16-3.25,4.65-3.42,5.16-.09.28-.08.73.21.63,3.16-1.91,6.68-3.89,10.04-5.39.72-.32,1.37-.38.46.46l-14.5,8.86.37.79-7.71-2.14c-.29,1.74,1.54,1.83,1.99,2.28,1.38,1.39,2.53,3.38,4.64,4.14.97-1.32,1.13-3.1,3.22-3l-.86-2.13c.64-.02,1.17.43,1.83.35,1.57-.19,8.49-3.95,11.12-4.76s5.71-1.64,8.48-1.59l-11.57,4.5,5.37-.24,6.2.88c-3.93.27-7.86.92-11.79,1.29-.49.05-6.16-.27-5.35.86l1.5.86-5.13,2.59c-.97,1.91-2.06,10.47-3.96,11.06-.62.19-2.3-.41-3.14.71l.23,1.08c2.3.1,1.73-1.67,3.39,1.12.11.18.71.15.7.39-.08,1.62-1.78,3.02-3.45,2.77l.64,1.27,3.64-2.13c1.43,3.4-2.22,2.78-2.99,5.14.4.36,6.32-1.9,5.16-3.84,3.11.22,6.18-.63,9.24-.83.81-.05,1.58.47,2.49.39,1.28-.11,16.9-10.31,18.67-11.8,1.13-.95,2.1-2.7,3.44-3.85s7.96-5.56,8.37-6.21c1.68-2.68-3.33-3.71-3.6-4.57-.29-.94.39-1.81.28-2.45-.17-1-2.16-1.49-2.41-2.26-.26-.82.18-2.03-.16-2.63ZM129.84,91.7c.5-4.24,2.54-7.42,4.74-10.93l-3.22-3.2c-2.37,4.04-3.54,8.59-4.94,13.04l3.43,1.09ZM113.92,80.5c.41-.66-.31-1.77-.36-2.5-1.65,1.21-7.3,1.16-6.66,3.86,1.28,5.43,2.83,5.47,7.95,3.85l-2.1-4.15c-.25-.79.99-.79,1.16-1.07ZM185.11,89.18l-2.04.59c.76,1.66.89,3.71,1.45,5.38s1.5.91,2.18-.21l-1.59-5.76ZM193.29,89.14h-6c.88,2.02,1.45,4.21,1.29,6.43l6-.86-1.29-5.57ZM122.9,93.09c-.1-.17-.87-.32-1.19-.72-.54-.67-1.31-2.39-2.28-2.3l-6.28,3.14c2.12,4.47,4.24,3.2,8.24,1.91.46-.15-.02-1.27,1.6-.4-.05-.52.16-1.17-.09-1.63ZM181.71,90.43c-.71-.65-6.69,3.86-7.51,4.71l1.01,1.36-.14,1.22,4.5-3.85c-1.01,2.43-1.93,4.46-3.85,6.42.77.64,6.16-4.79,6.54-5.69.67-1.59-.57-2.56-.55-4.16ZM204.78,93.51c-3.21-.34-5.53-2.69-8.92-2.65.44,1.47.54,3.49,2.13,4.08.81.3,7.46,1.78,7.72,1.49l-.93-2.92ZM202.07,109.71c1.88-.22,4.44,0,6.43,0,.09,0,.48.64.64.43.09-.48-.06-.85-.2-1.29-.46-1.39-4.41-9.96-5.12-10.74-1.02-1.12-5.36-2.19-6.89-2.14-1.41.04-2.35.76-3.48.88-.94.1-1.82-.37-2.47-.28-2.55.32-5.02,2.15-7.28-.11l-3.22,3.1,7.67,18.3c1.37.15.67-1.57,1.7-2.79,1.54-1.84,9.77-5.06,12.22-5.35ZM166.07,102.01c-1.88,1.61-4.69,2.4-4.09,5.35.26,1.28,3.02,1.69,3.64,2.79.51.91-.07,2.8,1.67,2.95,1.02-.72,2.02-1.8,1.97-3.14-.02-.48-2.77-7.93-3.19-7.96ZM160.71,106.72c-.63-.61-4.89,2.77-4.71,2.99l6.85,1.72v-1.28s-2.57,0-2.57,0l.43-3.43ZM122.96,107.61l-8.12.15c-.6,1.55-4.14,10.03-3.38,10.91,3.34.44,6.53,2.89,9.62,3.88,1.09.35.25-2.41.15-2.51-.37-.35-2.61.38-2.09-1.77l6.85.85-3.04-11.53ZM179.14,121.28c-.03-2.13-1.93-11.38-3.72-11.91l-3.56-.08c.21.86,1.87.26,2.7.51.42.13.72.41.92.79l3.66,10.69ZM204.77,111.13c-2.56.18-5.94.99-8.35,1.94-1.45.57-6.56,3.08-6.1,4.93,1.25,1.83,4.53,1.7,6.6,1.57,2.7-.17,14.85-3.07,13.88-6.98-1.21-1.88-4.03-1.59-6.03-1.45ZM172.72,114.86c-.34-.31-.15-2.77-1.29-3l.44,3.84,2.53.04.87,3.83c.54-2.19-.4-4.31-.86-6.43-.83-.17-.72,2.6-1.7,1.71ZM161.98,119.59c-4.79.06-10.81-3.21-15.21-3.47-1.7-.1-4.17-.44-5.55-.45-1.57,0-5.66.53-7.17,1.01-2.08.67-3.69,2.47-5.9,2.89l4.71,2.13c-3.3-.17-6.57-2.44-9.85-1.28-.25.34,4.56,5.95,4.92,6.86s.36,1.11-.42,1.69c-.46-.03-3.69-4.17-4.51-4.51-.63-.26-1.75.3-2.72.21-1.34-.12-3.12-1.61-4.26-1.23l-9.25,12.12c.19,1.11,7.71,4.79,9.22,4.95,2.96.32,5.56-3.18,8.17-4.62.59-.32,1.18-.52,1.86-.5-2.33-2.68-5.51-5.03-4.95-9.01l1.29-.44,4.94,7.09-1.42-.29-3.71-4.64c-.06,1.58,2.86,6.01,4.16,6.37,2.42-.3,4.8-1.37,7.24-1.6,6.6-.63,15.27,2.07,21.68,3.93,4.31,1.25,8.54,2.67,12.76,4.17.03.73.23.93-.62.84-1.77-.2-3.48-1.78-5.38-1.7l1.58,6.75,3.56,1.38-.86-4.28-1.28,3c.29-1.57-.95-5,1.28-5.14.64,3.32.39,7.5,4.71,7.71.28-.3-1.81-6.11-2.13-7.08-1.79-5.31-5.67-13.59-6.68-18.61-.29-1.45-.16-2.84-.21-4.29ZM180,156c-2.95-9.12-7.01-17.93-8.8-27.42l-7.91-8.15,12.89,35.97,3.82-.4ZM179.57,146.14l2.95-8.69-8.08-6.31,5.13,15ZM158.1,138.47c-9.34-1.64-18.61-6.13-28.25-4.32.1,1.23.84,2.48-.29,3.46-1.74,1.15-2.79-.76-3.35-.77-.77,0-5.16,3.75-6.64,3.75l.64,2.13,2.35-3c.61,2.13-.02,4.3-.42,6.43,2.05-.09,3.02-2.47,4.56-3.36,3.49-2.03,10.34-1.39,14.29-.92l-1.5-5.14-.21,3.43c-1.96.48-.83-1.15-2.14-1.72l-.86,1.71.2-5.16c.2-.58,1.43,0,1.48.06.31.41-.43,1.76.46,1.67.36-.77,0-2.48,1.28-2.14l.87,2.57,1.07-1.7c2.07,1.41,1.4,4.19,2.03,6.11.56,1.7,3.65,1.25,5.04,2.03.15-2.37-.93-4.6.22-6.85,2.27,1.83,1.65,4.91,2.62,7.33l10.88,2.52-1.07-2.57-.21,1.71-1.72-1.71-1.06,1.28-1.29-1.71-1.5,1.28c.36-2.04-1.78-5.14,1.06-6l1.5,2.14-.04-2.53ZM110.15,154.71c1.76.12,2.6-1.79,3.89-2.75,1.54-1.15,6.4-3.74,7.25-4.75s.85-4.04.86-5.35l-3.43,5.99-.42-2.99-2.15,4.71c-.81.08-.34-.86-.22-1.29.54-1.83,1.82-3.69,2.37-5.56-.46-.48-2.84,2.15-3.22,2.56-2.26,2.47-4.76,6.01-4.92,9.43ZM180.85,156.43l-1.67.67.82,4.04c-1.22-.62-1.87-2.15-2.15-3.43l-1.27.44,1.34,3.79,2.94-.37c-.25.54-2.1,1.4-2.57,1.53-.54.14-.82-.12-1.28-.25l.43,1.71,4.52-2.57-1.1-5.57ZM239.04,219.97c-1.21-1.17-5.9.54-4.39-2.68.6-1.28,2.91-1.31,2.72-3.11-.43-4.04-6.38-10.61-8.08-14.47l-2.55,1.91c1.75,1.17,6.85,11.07,5.98,12.23-4.32-.96-6.06-6.75-8.17-10.26-.61-.44-6.39,2.61-6.39,3.18l3.28,4.28c-.04.74-3.5,4.62-3.91,5.81-.77,2.23.27,5.02.63,7.27,1.2-.77.83-2.02,2.68-1.64,1.21.25,8.15,3.54,8.9,4.42,2.17,2.55,1.15,9.37,4.12,13.4,1.57,2.13,6.65,3.51,8.07,6.1,4.7-2.44,2.41-4.57,1.71-8.55-.61-3.51-.84-7.32-1.7-10.73-.32-1.27-2.16-6.46-2.9-7.17ZM218.99,212.14c.68-1.63,0-3.32-1.55-4.18l-8.3,2.48c.32.92.42.76,1.14.5,1.54-.54,5.86-2.28,7.22-2.21.49.02.85.97-.06,1.22l-4.88,1.76,6-.85-.42,1.07.84.21ZM216.43,213.86c-1.37.25-2.33,1.17-3.86.85v2.14c.52.59,3.63-2.24,3.86-2.99ZM215.11,218.61l-1.91.37c-.27,1.48-.08,2.72-1.87,3.07l.4,1.67c1.24-1.35,2.2-2.47,4.28-2.15l-.89-2.96ZM229.28,231.43c.03-1.24-.22-2.87-1.3-3.62-.82-.57-6.12-2.41-7.24-2.62-.84-.16-1.13-.41-1.73.46l10.27,5.79ZM102.43,266.58l-10.01-2.54-2.85,7.25,8.89,1.84,3.97-6.54ZM92.57,273.43l-6-1.29c-.24,1.14.29.74.84,1.06,1.4.82,3.01,1.28,4.48,1.95l.67-1.73ZM62.15,276c-.29.3.93,2.63,1.59,2.91,1.59.68,10.95,1.7,13.18,1.82,5.11.29,11.17.69,13.93-4.47-.11-.66-5.46-2.91-6.18-2.84-1.39.14-1.7,1.95-2.63,2.54s-7.77.92-9.4.92l-10.48-.87Z"/>
  <path d="M82.2,298.37c.58.99-.67,3.12.77,4.16,1.02.74,10.73,3.63,12.61,4.1,3.48.87,3.84.41,4.72-3.21,2.5-.6,1.73,2.93.73,3.74-2.08,1.69-6.36.38-8.8-.18-5.02-1.14-12.93-3.28-14.68-8.68-.7-.51-4.25,2.11-5.55,1.06-7.86-4.71-17.29-7.69-25.14-12.16-2.2-1.25-4.27-2.64-5.71-4.78,2.32.52,4.26,2.46,6.42,3.65,7.74,4.27,16.17,7.46,24,11.58,2.29.76,3.8-1.56,6.25-1.46.56.02,4.23,1.9,4.39,2.17Z"/>
  <path d="M87.99,286.42c.08-.12,2.04-1.64,2.28-1.78,6.19-3.54,14,7.39,3.6,8.76-4.31.57-8.44-3.39-5.88-6.97ZM90.11,291.74c1.8,1.7,9.81.5,6.92-4.57-2.68-4.71-10.85.86-6.92,4.57Z"/>
  <path d="M67.71,290.58c.02.91-1.55.15-1.95.02-2.42-.84-6.37-2.86-8.78-4.08-3.58-1.82-7.79-3.94-10.7-6.65l21.43,10.72Z"/>
  <path d="M83.15,40.72l-.26,1.32-5.74,1.67c0-2.83,3.77-3.22,6-3Z"/>
  <path d="M82.55,48.03c2.31-.75,3.59,3.51,2.08,3.82-1.66-.35-4-2.38-2.08-3.82Z"/>
  <path class="cls-1" d="M168.77,80.23c.34.61-.11,1.81.16,2.63.25.77,2.23,1.26,2.41,2.26.11.64-.57,1.51-.28,2.45.27.86,5.28,1.89,3.6,4.57-.41.65-6.98,5.02-8.37,6.21s-2.31,2.89-3.44,3.85c-1.77,1.5-17.38,11.69-18.67,11.8-.9.08-1.68-.44-2.49-.39-3.06.21-6.13,1.06-9.24.83,1.16,1.94-4.75,4.2-5.16,3.84.78-2.36,4.42-1.74,2.99-5.14l-3.64,2.13-.64-1.27c1.67.25,3.37-1.16,3.45-2.77.01-.24-.59-.21-.7-.39-1.66-2.79-1.09-1.02-3.39-1.12l-.23-1.08c.84-1.12,2.52-.52,3.14-.71,1.9-.58,2.99-9.15,3.96-11.06l5.13-2.59-1.5-.86c-.81-1.13,4.86-.81,5.35-.86,3.92-.36,7.85-1.02,11.79-1.29l-6.2-.88-5.37.24,11.57-4.5c-2.77-.05-5.82.77-8.48,1.59s-9.55,4.57-11.12,4.76c-.66.08-1.19-.37-1.83-.35l.86,2.13c-2.09-.1-2.25,1.69-3.22,3-2.11-.76-3.26-2.75-4.64-4.14-.45-.45-2.28-.55-1.99-2.28l7.71,2.14-.37-.79,14.5-8.86c.91-.84.26-.78-.46-.46-3.36,1.5-6.88,3.48-10.04,5.39-.29.09-.3-.35-.21-.63.17-.51,3.08-4.99,3.42-5.16,2.16-1.02,3.78.6,6.43-2.57.44-.53,2.44-3.88,2.48-4.36.13-1.61-2.39-2.3,1.33-3.78l15.58,3.32c.76,1.04,5.5,4.57,5.81,5.12ZM154.28,93l-1.31.27-5.96,10.45c.59.65,8.93-8.33,7.28-10.71ZM131.58,103.71l5.35,7.71c.96-.66.41-.76.21-1.48-.72-2.65-2.89-5.44-5.56-6.22Z"/>
  <path class="cls-1" d="M161.98,119.59c.05,1.45-.08,2.84.21,4.29,1.01,5.02,4.89,13.3,6.68,18.61.33.97,2.41,6.78,2.13,7.08-4.32-.21-4.07-4.39-4.71-7.71-2.23.14-.99,3.57-1.28,5.14l1.28-3,.86,4.28-3.56-1.38-1.58-6.75c1.9-.08,3.61,1.5,5.38,1.7.85.1.64-.11.62-.84-4.22-1.5-8.45-2.92-12.76-4.17-6.42-1.86-15.08-4.55-21.68-3.93-2.44.23-4.82,1.3-7.24,1.6-1.31-.36-4.22-4.79-4.16-6.37l3.71,4.64,1.42.29-4.94-7.09-1.29.44c-.57,3.97,2.62,6.33,4.95,9.01-.68-.02-1.27.18-1.86.5-2.61,1.44-5.21,4.93-8.17,4.62-1.51-.16-9.03-3.84-9.22-4.95l9.25-12.12c1.15-.38,2.92,1.11,4.26,1.23.97.09,2.09-.47,2.72-.21.82.33,4.05,4.48,4.51,4.51.78-.58.76-.83.42-1.69-.36-.91-5.17-6.53-4.92-6.86,3.28-1.17,6.56,1.11,9.85,1.28l-4.71-2.13c2.22-.41,3.82-2.22,5.9-2.89,1.5-.48,5.59-1.02,7.17-1.01,1.38,0,3.85.35,5.55.45,4.4.26,10.42,3.52,15.21,3.47Z"/>
  <path class="cls-1" d="M200.14,90.43c-1.4-.72-3.45-.41-4.81-.97-.95-.39-1.16-1.38-2.26-1.6-1.62-.31-4.18.09-5.99,0-2.46-.13-2.35-1.56-5.25.27-.56.35-.8,1.27-1.14,1.32-.41.06-4.93-1.81-5.27-2.14l-9.92-23.82c4.46-2.6,7.71-4.21,13.04-3.94.58.03,3.47.42,4.15.54,1.33.23,5.01,1.77,5.65,2.94l11.81,27.4Z"/>
  <path class="cls-1" d="M239.04,219.97c.74.71,2.58,5.9,2.9,7.17.86,3.41,1.09,7.22,1.7,10.73.7,3.98,2.99,6.11-1.71,8.55-1.43-2.59-6.51-3.97-8.07-6.1-2.97-4.04-1.95-10.86-4.12-13.4-.75-.88-7.69-4.17-8.9-4.42-1.85-.38-1.47.88-2.68,1.64-.36-2.25-1.4-5.04-.63-7.27.41-1.19,3.87-5.07,3.91-5.81l-3.28-4.28c0-.58,5.77-3.62,6.39-3.18,2.12,3.51,3.86,9.3,8.17,10.26.87-1.16-4.23-11.06-5.98-12.23l2.55-1.91c1.7,3.85,7.65,10.42,8.08,14.47.19,1.79-2.12,1.83-2.72,3.11-1.5,3.22,3.19,1.51,4.39,2.68ZM227.57,213.86c-1.85-.25-3.5.4-3.83,2.38-1.36,8.31,10.94,7.48,6.82-.66l-.85.21c2.52,3.07.68,6.76-3.33,5.04-1.91-.82-2.44-4.22-1.43-5.82.61-.97,2.34-.2,2.6-1.14ZM240,237.86c-.53-4.1-1.69-8.66-3.1-12.54-.16-.45-.15-1.27-.75-1.17l1.83,7.8,2.02,5.91Z"/>
  <path class="cls-1" d="M134.03,55.41c.47.48,3.37,7.7,3.77,8.88.18.55-.25,1.16-.01,1.7.18.41,1.07.89,1.07,1.09.03,1.56-3.92,1.9-4.53,2.32-.24.17-3.41,4.29-3.56,4.58-.61,1.19-.3,2.21-.68,3.18-.84,2.14-2.51,4.3-3.43,6.86-.69,1.92-1.01,3.99-1.55,5.96-.59-.33-3.18.05-3.32-.03-.17-.1-.25-.87-.76-1.18-.64-.39-1.48-.39-2.12-.89-2.28-1.77-1.78-6.75-2.98-9.45-.45-1.02-1.5-1.31-1.54-1.56-.13-.8,2.2-7.57,2.7-8.83.81-2.03,4.89-10.37,6.22-11.47,1.42-1.17,9.31-2.58,10.7-1.16ZM123.42,84.86c-.03-1.05-2.25-6.81-2.78-6.85-.91.66-.58.77-.31,1.58.49,1.45,1.93,4.32,3.09,5.27Z"/>
  <path class="cls-1" d="M202.07,109.71c-2.46.29-10.68,3.51-12.22,5.35-1.03,1.23-.34,2.95-1.7,2.79l-7.67-18.3,3.22-3.1c2.26,2.25,4.74.42,7.28.11.65-.08,1.52.38,2.47.28,1.13-.12,2.07-.84,3.48-.88,1.53-.04,5.87,1.02,6.89,2.14.71.78,4.66,9.35,5.12,10.74.15.44.29.81.2,1.29-.16.21-.55-.43-.64-.43-1.99,0-4.55-.22-6.43,0Z"/>
  <path class="cls-1" d="M158.1,138.47l.04,2.53-1.5-2.14c-2.84.86-.7,3.96-1.06,6l1.5-1.28,1.29,1.71,1.06-1.28,1.72,1.71.21-1.71,1.07,2.57-10.88-2.52c-.97-2.42-.34-5.5-2.62-7.33-1.14,2.26-.06,4.49-.22,6.85-1.39-.78-4.49-.33-5.04-2.03-.63-1.92.05-4.7-2.03-6.11l-1.07,1.7-.87-2.57c-1.28-.34-.92,1.37-1.28,2.14-.89.09-.15-1.25-.46-1.67-.05-.06-1.27-.64-1.48-.06l-.2,5.16.86-1.71c1.3.57.17,2.2,2.14,1.72l.21-3.43,1.5,5.14c-3.95-.46-10.8-1.1-14.29.92-1.54.9-2.51,3.27-4.56,3.36.4-2.13,1.03-4.29.42-6.43l-2.35,3-.64-2.13c1.48,0,5.88-3.75,6.64-3.75.55,0,1.6,1.92,3.35.77,1.13-.98.39-2.22.29-3.46,9.63-1.8,18.9,2.68,28.25,4.32ZM147.42,141.43c-.18-1.59-.31-4.13-1.7-5.14-.62,1.95-.65,4.04,0,6l.43-3.42,1.28,2.57ZM128.86,140.89c.35-1.08.31-2.53-1.14-2.46l-.43,3.42c.31.39,1.55-.88,1.57-.97Z"/>
  <path class="cls-1" d="M122.96,107.61l3.04,11.53-6.85-.85c-.52,2.15,1.71,1.42,2.09,1.77.1.1.94,2.86-.15,2.51-3.08-.99-6.27-3.44-9.62-3.88-.76-.88,2.78-9.37,3.38-10.91l8.12-.15Z"/>
  <path class="cls-1" d="M180,156l-3.82.4-12.89-35.97,7.91,8.15c1.79,9.49,5.84,18.3,8.8,27.42Z"/>
  <path class="cls-1" d="M149.57,56.14c-.67.75-3.59-3.43-4.07-3.85-2.56-2.27-7.03-3.86-10.23-2.09-.68.38-1.24,1.44-1.85,1.59-2.05.5-4.81-1.4-6.56-2.09l.45-3.4c3.29-.32,7.69-2.21,10.92-2.16,2.07.03,7.35,2.52,8.78,4.08,1.92,2.09,2.25,5.2,2.57,7.92Z"/>
  <path class="cls-1" d="M204.77,111.13c2-.14,4.82-.42,6.03,1.45.97,3.91-11.18,6.81-13.88,6.98-2.06.13-5.34.26-6.6-1.57-.46-1.84,4.65-4.36,6.1-4.93,2.4-.95,5.78-1.76,8.35-1.94Z"/>
  <path class="cls-1" d="M62.15,276l10.48.87c1.63,0,8.47-.33,9.4-.92s1.24-2.4,2.63-2.54c.72-.07,6.07,2.18,6.18,2.84-2.76,5.16-8.82,4.76-13.93,4.47-2.23-.13-11.59-1.15-13.18-1.82-.65-.28-1.88-2.61-1.59-2.91Z"/>
  <polygon class="cls-1" points="102.43 266.58 98.46 273.12 89.57 271.28 92.42 264.03 102.43 266.58"/>
  <path class="cls-1" d="M141.51,42.78l-1.79-2.06c3.82-.76,7.63-1.85,11.48-2.45,1.61-.25,7.29-1.2,8.43-1s2.12,2.14.8,2.52l-18.92,3Z"/>
  <path class="cls-1" d="M144.35,74.22c.95,1.63-4.77,7.88-6.69,6.69-.17-.1-.22-.77-.53-.94-.6-.33-1.37-.24-1.93-.66-.68-.51-3.06-2.99-3.12-3.73,2.06-3.65,2.11-5.89,6.9-4.33.8.26,5.11,2.54,5.37,2.98ZM136.38,73.37c-2.75,9.94,12.04,3.79,3.12-.92l-3.12.92Z"/>
  <path class="cls-1" d="M129.84,91.7l-3.43-1.09c1.4-4.45,2.57-8.99,4.94-13.04l3.22,3.2c-2.2,3.51-4.24,6.68-4.74,10.93Z"/>
  <polygon class="cls-1" points="179.57 146.14 174.43 131.14 182.52 137.45 179.57 146.14"/>
  <path class="cls-1" d="M110.15,154.71c.16-3.42,2.66-6.96,4.92-9.43.38-.41,2.76-3.04,3.22-2.56-.55,1.87-1.83,3.73-2.37,5.56-.13.43-.6,1.37.22,1.29l2.15-4.71.42,2.99,3.43-5.99c0,1.32-.02,4.36-.86,5.35s-5.7,3.61-7.25,4.75c-1.29.96-2.13,2.87-3.89,2.75Z"/>
  <path class="cls-1" d="M113.92,80.5c-.17.28-1.41.27-1.16,1.07l2.1,4.15c-5.12,1.62-6.68,1.58-7.95-3.85-.63-2.7,5.01-2.65,6.66-3.86.04.72.77,1.84.36,2.5Z"/>
  <path class="cls-1" d="M166.07,102.01c.43.03,3.18,7.48,3.19,7.96.05,1.34-.96,2.42-1.97,3.14-1.73-.16-1.15-2.05-1.67-2.95-.62-1.1-3.38-1.51-3.64-2.79-.61-2.95,2.21-3.74,4.09-5.35Z"/>
  <path class="cls-1" d="M122.9,93.09c.26.46.05,1.1.09,1.63-1.62-.86-1.14.26-1.6.4-4,1.3-6.12,2.56-8.24-1.91l6.28-3.14c.98-.09,1.75,1.63,2.28,2.3.32.39,1.09.54,1.19.72Z"/>
  <path class="cls-1" d="M189.43,59.15l.43-1.29,2.15,5.14c-2.69-.44-4.65-2.31-6.9-3.59-3.26-1.85-5.16-1.17-5.95-5.83.42-.33,2.85.76,3.45,1.05,2.45,1.19,4.33,3.43,6.84,4.52Z"/>
  <path class="cls-1" d="M181.71,90.43c-.02,1.6,1.22,2.57.55,4.16-.38.9-5.77,6.33-6.54,5.69,1.92-1.96,2.84-4,3.85-6.42l-4.5,3.85.14-1.22-1.01-1.36c.83-.85,6.8-5.36,7.51-4.71Z"/>
  <path class="cls-1" d="M193.29,89.14l1.29,5.57-6,.86c.16-2.22-.41-4.41-1.29-6.43h6Z"/>
  <path class="cls-1" d="M207.85,80.57l-6.85-12.85c5.09,1.65,8.64,7.62,6.85,12.85Z"/>
  <path class="cls-1" d="M204.78,93.51l.93,2.92c-.26.3-6.91-1.18-7.72-1.49-1.59-.59-1.69-2.61-2.13-4.08,3.39-.04,5.71,2.31,8.92,2.65Z"/>
  <path class="cls-1" d="M164.57,57c.96,3,3.31,4.59-1.04,6.02s-3.05-1.24-4.1-4.31l5.14-1.72Z"/>
  <polygon class="cls-1" points="173.14 53.15 174.42 57.41 169.27 58.97 167.75 54.84 173.14 53.15"/>
  <path class="cls-1" d="M177.43,51l-7.62,1.17-6.09,3.12c.55-4,3.9-5.27,7.5-5.56,1.85-.15,5.03-.38,6.21,1.27Z"/>
  <path class="cls-1" d="M155.52,59.63l1.34,5.08-6.43-.85-.22-2.99c.12-2.29,3.86-1.17,5.31-1.25Z"/>
  <path class="cls-1" d="M102.43,36.43c.29.24-2.67,3.1-1.96,4.28,1.8,1.53,4.19.73,6.24.43.06.47-.02.87-.19,1.31-1.07,2.84-4.86-.29-7.09,1.26-1.55-3.44-1.06-6.46,2.99-7.29Z"/>
  <path class="cls-1" d="M145.29,24l-4.24.38c-1.23-3.27-1.86-4.62,1.03-7.23.25,1.14,3.78,6.27,3.21,6.85Z"/>
  <path class="cls-1" d="M229.28,231.43l-10.27-5.79c.59-.86.89-.61,1.73-.46,1.12.21,6.42,2.05,7.24,2.62,1.09.75,1.33,2.38,1.3,3.62Z"/>
  <path class="cls-1" d="M180.85,156.43l1.1,5.57-4.52,2.57-.43-1.71c.46.12.74.38,1.28.25.47-.12,2.32-.98,2.57-1.53l-2.94.37-1.34-3.79,1.27-.44c.28,1.28.93,2.81,2.15,3.43l-.82-4.04,1.67-.67Z"/>
  <path class="cls-1" d="M144.85,72.43l-6.42-3.21c3.11-3.49,4.13-2.01,7.09.65l-.68,2.56Z"/>
  <path class="cls-1" d="M185.11,89.18l1.59,5.76c-.68,1.12-1.65,1.8-2.18.21s-.69-3.71-1.45-5.38l2.04-.59Z"/>
  <path class="cls-1" d="M160.71,106.72l-.43,3.43h2.58s0,1.28,0,1.28l-6.85-1.72c-.17-.22,4.08-3.6,4.71-2.99Z"/>
  <path class="cls-1" d="M89.57,31.28c-.8.1-.34-.87-.23-1.3,1.02-4.28,3.43-10.42,6.23-13.69l-6,15Z"/>
  <path class="cls-1" d="M218.99,212.14l-.84-.21.42-1.07-6,.85,4.88-1.76c.91-.25.55-1.2.06-1.22-1.37-.07-5.68,1.67-7.22,2.21-.72.26-.82.41-1.14-.5l8.3-2.48c1.54.86,2.23,2.55,1.55,4.18Z"/>
  <path class="cls-1" d="M179.14,121.28l-3.66-10.69c-.2-.38-.5-.67-.92-.79-.83-.25-2.49.36-2.7-.51l3.56.08c1.79.53,3.7,9.79,3.72,11.91Z"/>
  <path class="cls-1" d="M141.85,25.29c5.71-1.19,6.23.78,1.1,2.99-.65-.15-1.15-2.29-1.1-2.99Z"/>
  <path class="cls-1" d="M140.57,13.29c1.15,2.69.92,3.48-1.07,5.56-2.22-.87-.12-6.46,1.07-5.56Z"/>
  <polygon class="cls-1" points="147.84 28.3 148.25 29.94 144.86 33 144.07 30.07 147.84 28.3"/>
  <path class="cls-1" d="M215.11,218.61l.89,2.96c-2.08-.33-3.04.8-4.28,2.15l-.4-1.67c1.79-.35,1.6-1.59,1.87-3.07l1.91-.37Z"/>
  <path class="cls-1" d="M137.99,13.71c-.98.19-.68-.07-.95-.54-.76-1.33-.91-2.74-.33-4.17,3.48.76,2.61,2.26,1.27,4.71Z"/>
  <path class="cls-1" d="M172.72,114.86c.98.89.87-1.88,1.7-1.71.46,2.11,1.39,4.23.86,6.43l-.87-3.83-2.53-.04-.44-3.84c1.14.23.95,2.69,1.29,3Z"/>
  <path class="cls-1" d="M177.85,57.43c-2.51.27-2.31-2.99-3-4.71,2.65-.51,2.99,2.74,3,4.71Z"/>
  <path class="cls-1" d="M92.57,273.43l-.67,1.73c-1.48-.67-3.08-1.13-4.48-1.95-.56-.33-1.08.08-.84-1.06l6,1.29Z"/>
  <polygon class="cls-1" points="150.86 36 146.39 36.89 145.72 34.72 150.14 34.79 150.86 36"/>
  <path class="cls-1" d="M171.86,48.42l-2.81.05c-1.1-.88-.22-1.91-.19-3.05.59-.55,2.58,2.59,3,2.99Z"/>
  <path class="cls-1" d="M158.14,59.14c-.03.96,1.83,4.69.64,5.14-.85.32-.7-.78-.84-1.29-.18-.67-1.45-4.27.19-3.85Z"/>
  <path class="cls-1" d="M108.86,70.71c1.08-2.95,2.78-6.08,4.71-8.57-1.08,2.95-2.78,6.08-4.71,8.57Z"/>
  <path class="cls-1" d="M216.43,213.86c-.22.75-3.33,3.58-3.85,2.99v-2.14c1.53.32,2.49-.6,3.85-.85Z"/>
  <path class="cls-1" d="M116.57,16.71v.43h-9.21c-.27,0-1.44-.68-1.07-.85,1.03-.47,2.63.42,3.21.42h7.07Z"/>
  <path class="cls-1" d="M149.14,30.86l.86,3-2.99-.86c.24-.43,1.46-2.66,2.14-2.14Z"/>
  <path class="cls-1" d="M77.57,30.86c.11.73-1.02.46-1.49.42-1.29-.1-3.03-.26-4.29-.43-.56-.07-2.27-.14-2.36-.85l8.14.86Z"/>
  <path class="cls-1" d="M90.11,291.74c-3.93-3.7,4.24-9.28,6.92-4.57,2.88,5.07-5.12,6.26-6.92,4.57Z"/>
  <path d="M154.28,93c1.65,2.38-6.69,11.36-7.28,10.71l5.96-10.45,1.31-.27Z"/>
  <path d="M131.58,103.71c2.68.78,4.85,3.57,5.56,6.22.2.73.74.82-.21,1.48l-5.35-7.71Z"/>
  <path d="M227.57,213.86c-.26.94-1.99.17-2.6,1.14-1.02,1.6-.48,5,1.43,5.82,4,1.72,5.84-1.97,3.33-5.04l.85-.21c4.12,8.15-8.19,8.98-6.82.66.32-1.98,1.97-2.63,3.83-2.38Z"/>
  <path d="M240,237.86l-2.02-5.91-1.83-7.8c.6-.1.58.72.75,1.17,1.41,3.88,2.57,8.44,3.1,12.54Z"/>
  <path d="M123.42,84.86c-1.16-.95-2.6-3.82-3.09-5.27-.28-.81-.6-.92.31-1.58.53.03,2.75,5.8,2.78,6.85Z"/>
  <path d="M147.42,141.43l-1.28-2.57-.43,3.42c-.66-1.95-.62-4.04,0-6,1.4,1.01,1.52,3.55,1.7,5.14Z"/>
  <path d="M128.86,140.89c-.03.09-1.26,1.36-1.57.97l.43-3.42c1.45-.07,1.49,1.38,1.14,2.46Z"/>
  <path d="M136.38,73.37l3.12-.92c8.92,4.71-5.87,10.86-3.12.92ZM136.71,73.72c-.96,3.94,5.66,5.31,4.54,1.7-.67-2.16-2.7-1.74-4.54-1.7Z"/>
  <path class="cls-1" d="M136.71,73.72c1.84-.04,3.88-.46,4.54,1.7,1.12,3.61-5.5,2.23-4.54-1.7Z"/>
</svg>